<svg id="Layer_1" xmlns="http://www.w3.org/2000/svg" width="24" height="24" viewBox="0 0 24 24"><style>.st0{fill:#00b29f}.st1{fill:#94a3ab}.st2{fill:#5aaafa}</style><path class="st0" d="M20.7 11.5L24 5.8 20.7 0h-6.6l-3.3 5.8c.9-.4 1.9-.7 3-.7 3.6 0 6.6 2.8 6.9 6.4z"/><path class="st0" d="M19.5 10.4c-.7-2.5-3-4.3-5.7-4.3-.5 0-.9.1-1.4.2l7.1 4.1zM19.4 11.5l-8-4.7 2.7 4.7z"/><path class="st1" d="M6.8 12.1c0-.1 0-.1 0 0 0-2.4 1.2-4.5 3.1-5.8H3.3L0 12l3.3 5.7h6.6c-1.8-1.2-3.1-3.3-3.1-5.6z"/><path class="st1" d="M7.8 12c0 1.6.6 3.1 1.7 4.1V7.9C8.5 9 7.8 10.4 7.8 12zM10.5 7.3V16.7l2.7-4.6V12z"/><path class="st2" d="M11.4 17.2l8.1-4.7h-5.4zM13.8 18.9c-1.1 0-2.1-.3-3-.7l3.3 5.8h6.6l3.3-5.8-3.3-5.7c-.3 3.6-3.3 6.4-6.9 6.4z"/><path class="st2" d="M19.5 13.7l-7.1 4.1c.4.1.9.2 1.4.2 2.7-.1 4.9-1.9 5.7-4.3z"/></svg>